<?xml version="1.0" encoding="utf-8"?>
<!-- Generator: Adobe Illustrator 23.1.0, SVG Export Plug-In . SVG Version: 6.00 Build 0)  -->
<svg version="1.1" id="Layer_1" xmlns="http://www.w3.org/2000/svg" xmlns:xlink="http://www.w3.org/1999/xlink" x="0px" y="0px"
	 viewBox="0 0 800 800" style="enable-background:new 0 0 800 800;" xml:space="preserve">
<style type="text/css">
	.st0{fill-rule:evenodd;clip-rule:evenodd;fill:#FFFFFF;}
	.st1{fill-rule:evenodd;clip-rule:evenodd;fill:#0077B5;}
</style>
<g id="Layer_2">
	<rect x="52" y="49" class="st0" width="706" height="706"/>
</g>
<path class="st1" d="M681.7,681.7H563.1V496c0-44.3-0.8-101.2-61.6-101.2c-61.7,0-71.1,48.3-71.1,98v188.8H311.8V299.9h113.8v52.2
	h1.6c15.8-30,54.5-61.7,112.2-61.7c120.2,0,142.4,79,142.4,181.9V681.7z M178,247.7c-38.1,0-68.8-30.8-68.8-68.8
	c0-38,30.7-68.8,68.8-68.8c37.9,0,68.8,30.8,68.8,68.8C246.8,216.9,215.9,247.7,178,247.7L178,247.7z M237.3,681.7H118.5V299.9
	h118.8V681.7z M766.7,0H33.3C14.9,0,0,14.9,0,33.3v733.3C0,785.1,14.9,800,33.3,800h733.3c18.4,0,33.3-14.9,33.3-33.4V33.3
	C800,14.9,785.1,0,766.7,0L766.7,0z"/>
</svg>
